Coordinates
version=1
nRows=24
nColumns=22
inDegrees=yes

Units are S.I. units (second, meters, Newtons, ...)
If the header above contains a line with 'inDegrees', this indicates whether rotational values are in degrees (yes) or radians (no).

endheader
time	pelvis_tilt	pelvis_list	pelvis_rotation	pelvis_tx	pelvis_ty	pelvis_tz	hip_flexion_r	hip_adduction_r	hip_rotation_r	knee_angle_r	ankle_angle_r	subtalar_angle_r	hip_flexion_l	hip_adduction_l	hip_rotation_l	knee_angle_l	ankle_angle_l	subtalar_angle_l	lumbar_extension	lumbar_bending	lumbar_rotation
      3.74000000	     -2.42657365	      6.52131004	     21.24177549	     -0.07820764	      1.06795140	     -0.45202381	     24.09783841	     -0.40098151	      3.57028687	    -61.55127020	      7.43453347	     -2.45349111	      4.28995223	      3.79886385	     -4.15368444	    -15.45116719	     11.66927896	      2.34331844	     -7.66253952	     -6.33445602	     -6.74657796
      3.75000000	     -2.31626365	      6.45991361	     20.89500636	     -0.07160404	      1.06809472	     -0.45574330	     24.81179339	     -0.78281536	      2.39264028	    -60.25651977	      8.15410777	     -2.75192050	      3.54747098	      3.78067436	     -4.49257300	    -15.05363449	     11.94274936	      2.26346927	     -7.75842393	     -6.17866345	     -7.03582376
      3.76000000	     -2.17331182	      6.41766617	     20.56714502	     -0.06491179	      1.06820929	     -0.45943191	     25.39643422	     -1.20863282	      1.12785908	    -58.80565335	      8.83344424	     -3.11703094	      2.75609365	      3.77294171	     -4.83831858	    -14.64577278	     12.17589384	      2.17117973	     -7.89346758	     -6.02672132	     -7.34424167
      3.77000000	     -2.08341761	      6.37278056	     20.31363893	     -0.05821562	      1.06814460	     -0.46316325	     25.96092671	     -1.70597933	     -0.25854246	    -57.24065159	      9.44567733	     -3.29573355	      2.02853890	      3.79368206	     -5.07687546	    -14.26261112	     12.47850191	      2.10328496	     -7.97546143	     -5.88431483	     -7.69837815
      3.78000000	     -1.90768140	      6.34851079	     20.04130611	     -0.05133991	      1.06813393	     -0.46679158	     26.33490114	     -2.20066655	     -1.71502442	    -55.53052853	      9.97805761	     -3.66075424	      1.20513501	      3.79899496	     -5.35920255	    -13.89058102	     12.70857164	      2.01684579	     -8.14310881	     -5.73741797	     -8.00948761
      3.79000000	     -1.77033361	      6.31534230	     19.80313820	     -0.04439826	      1.06796829	     -0.47038409	     26.67408672	     -2.71583164	     -3.25380406	    -53.71824307	     10.40611401	     -3.96859284	      0.43985775	      3.81394323	     -5.57262044	    -13.55855890	     12.99081101	      1.94525891	     -8.26281088	     -5.59561102	     -8.29823033
      3.80000000	     -1.59969969	      6.28633952	     19.54428590	     -0.03728222	      1.06775931	     -0.47383855	     26.89050926	     -3.19738818	     -4.82067120	    -51.78908503	     10.74513902	     -4.38206772	     -0.35971916	      3.81678724	     -5.81150951	    -13.24141432	     13.27885143	      1.86828819	     -8.40414845	     -5.45365843	     -8.56495588
      3.81000000	     -1.44676792	      6.23334091	     19.30611402	     -0.03007101	      1.06742737	     -0.47719852	     27.05433911	     -3.65754357	     -6.47753342	    -49.76287486	     10.94374515	     -4.75366204	     -1.10336001	      3.79934961	     -6.00135582	    -12.98976613	     13.58335128	      1.79814384	     -8.51022332	     -5.30061989	     -8.78387071
      3.82000000	     -1.25692597	      6.18531614	     19.03555632	     -0.02268421	      1.06705276	     -0.48038355	     27.09484175	     -4.06386651	     -8.15797391	    -47.63076206	     11.07935232	     -5.22116069	     -1.88215908	      3.76755439	     -6.24589941	    -12.75543352	     13.88964707	      1.72115375	     -8.64409308	     -5.14849619	     -8.98002727
      3.83000000	     -1.07891658	      6.11398934	     18.77115005	     -0.01518715	      1.06656217	     -0.48342809	     27.07590214	     -4.42515649	     -9.92526577	    -45.40668602	     11.13225156	     -5.63254735	     -2.61779291	      3.71165705	     -6.46640291	    -12.57377624	     14.21595374	      1.65055671	     -8.74947483	     -4.98588066	     -9.13179891
      3.84000000	     -0.90196766	      6.02684164	     18.50619155	     -0.00756968	      1.06597275	     -0.48631945	     26.98142141	     -4.73486292	    -11.77914656	    -43.09033432	     11.15174525	     -5.99407677	     -3.32751641	      3.63313375	     -6.69087337	    -12.43760617	     14.55746271	      1.59117894	     -8.84215466	     -4.81438513	     -9.25696509
      3.85000000	     -0.72615028	      5.92666140	     18.24105818	      0.00017159	      1.06528364	     -0.48905111	     26.81151750	     -4.99220744	    -13.73556593	    -40.69002604	     11.16702398	     -6.28503348	     -4.01336198	      3.53343461	     -6.92087421	    -12.34650617	     14.91363954	      1.55099663	     -8.92425000	     -4.63757599	     -9.35718408
      3.86000000	     -0.55462712	      5.81281804	     17.98266420	      0.00803955	      1.06449285	     -0.49162465	     26.57161260	     -5.19885762	    -15.82515684	    -38.21928344	     11.18797843	     -6.47685634	     -4.67137703	      3.41097071	     -7.15027752	    -12.30233927	     15.28203523	      1.53519178	     -8.99336653	     -4.45472121	     -9.44457334
      3.87000000	     -0.38553718	      5.69151541	     17.73048923	      0.01602325	      1.06360654	     -0.49404850	     26.26604568	     -5.35642690	    -18.05589536	    -35.69984714	     11.21904001	     -6.56543985	     -5.30491832	      3.27150080	     -7.37107427	    -12.30720978	     15.65695104	      1.55017515	     -9.05781702	     -4.26867073	     -9.51256844
      3.88000000	     -0.21877025	      5.55851267	     17.48212681	      0.02414451	      1.06262648	     -0.49630166	     25.90553557	     -5.45426095	    -20.43951184	    -33.15850860	     11.27526018	     -6.56082216	     -5.91827469	      3.10670865	     -7.60869925	    -12.34975503	     16.03973478	      1.60519915	     -9.11291947	     -4.07533029	     -9.58843684
      3.89000000	     -0.05891220	      5.41524965	     17.24064280	      0.03237129	      1.06155510	     -0.49836156	     25.50824107	     -5.48900462	    -22.97255925	    -30.62366312	     11.34155989	     -6.47315843	     -6.49824436	      2.91740153	     -7.83727757	    -12.44652378	     16.42521700	      1.70813552	     -9.16194864	     -3.88141950	     -9.64743221
      3.90000000	      0.08470400	      5.25584260	     16.99808929	      0.04071046	      1.06038292	     -0.50021121	     25.10000363	     -5.44386524	    -25.61537232	    -28.12490884	     11.42854347	     -6.32230971	     -7.03702554	      2.69934093	     -8.07135935	    -12.59114571	     16.81771842	      1.86660455	     -9.19103695	     -3.68195597	     -9.69766487
      3.91000000	      0.20907093	      5.08226146	     16.75319375	      0.04914080	      1.05912040	     -0.50182045	     24.69820955	     -5.31153045	    -28.31700019	    -25.69206034	     11.53271157	     -6.11947417	     -7.52751568	      2.45283394	     -8.30919372	    -12.79064203	     17.20525623	      2.08573257	     -9.20200861	     -3.48312309	     -9.73777165
      3.92000000	      0.30322752	      4.89460500	     16.49713065	      0.05764454	      1.05775754	     -0.50317252	     24.32893405	     -5.08365907	    -30.98314464	    -23.35518108	     11.67148948	     -5.87373754	     -7.95192057	      2.18166993	     -8.55030432	    -13.05886523	     17.58524162	      2.36372910	     -9.18499483	     -3.28860077	     -9.75208504
      3.93000000	      0.36250667	      4.69445727	     16.22620869	      0.06623099	      1.05630531	     -0.50427688	     24.00659078	     -4.76307827	    -33.52157299	    -21.14951636	     11.84054719	     -5.59908586	     -8.31335108	      1.89028661	     -8.80149261	    -13.38233819	     17.94953265	      2.69780274	     -9.13104263	     -3.09864330	     -9.75928518
      3.94000000	      0.38359090	      4.48723349	     15.93750793	      0.07489601	      1.05477445	     -0.50515004	     23.73892362	     -4.36323353	    -35.82929916	    -19.10852425	     12.02875613	     -5.32391342	     -8.60761752	      1.58724333	     -9.05312690	    -13.76760628	     18.28957988	      3.08070947	     -9.03762920	     -2.91739190	     -9.75399527
      3.95000000	      0.35848786	      4.26974135	     15.63355828	      0.08367314	      1.05317646	     -0.50585311	     23.53368766	     -3.90356088	    -37.83642306	    -17.27020170	     12.19854880	     -5.10256274	     -8.83584654	      1.27756567	     -9.28420708	    -14.19988796	     18.60331812	      3.47482815	     -8.88572103	     -2.73539786	     -9.74323788
      3.96000000	      0.34027894	      4.06221061	     15.31727592	      0.09257688	      1.05161855	     -0.50641026	     23.31824996	     -3.40520700	    -39.46121733	    -15.65328237	     12.37283706	     -4.93263112	     -9.04425081	      0.96118605	     -9.51410496	    -14.70727433	     18.84536198	      3.95904428	     -8.74133079	     -2.55686366	     -9.73828950
      3.97000000	      0.31672937	      3.85634133	     14.99216321	      0.10167083	      1.05010156	     -0.50689821	     23.10230577	     -2.89456725	    -40.69384603	    -14.30140676	     12.49948902	     -4.87486138	     -9.23500991	      0.64144256	     -9.71513227	    -15.26498816	     19.03286670	      4.48256869	     -8.57393402	     -2.36724609	     -9.74237990
